<svg width="14" height="28" viewBox="0 0 14 28" fill="none" xmlns="http://www.w3.org/2000/svg">
<path d="M13.7668 6.47352L7.56635 0.240753C7.41792 0.0915526 7.20537 0 6.99959 0C6.7803 0 6.57453 0.0881656 6.42947 0.24414L0.23237 6.47352C-0.0746277 6.78212 -0.0779977 7.29414 0.225631 7.61293C0.229001 7.61632 0.229001 7.61632 0.23237 7.61971C0.539369 7.92831 1.04874 7.93169 1.36588 7.62648C1.36925 7.62309 1.36925 7.6231 1.37262 7.61971L6.19333 2.77388V27.1828C6.19333 27.6338 6.55431 28 6.99959 28C7.44487 28 7.80585 27.6371 7.80585 27.1895V2.77388L12.6333 7.61971C12.7885 7.77568 12.9875 7.86046 13.2001 7.86046C13.4193 7.86046 13.6251 7.7723 13.7736 7.6129C14.0738 7.3043 14.0772 6.79566 13.7736 6.48029C13.7702 6.47691 13.7702 6.47352 13.7668 6.47352Z" fill="black" style="fill:black;fill-opacity:1;"/>
</svg>
