<svg width="63" height="78" viewBox="0 0 63 78" fill="none" xmlns="http://www.w3.org/2000/svg">
<path d="M23.1478 14.8055C24.1362 14.8055 24.9375 15.6139 24.9375 16.6111V17.2213C25.8289 17.2129 26.7789 17.2129 27.7895 17.2129H35.2106C36.2212 17.2129 37.1712 17.2129 38.0625 17.2213V16.6111C38.0625 15.6139 38.8639 14.8055 39.8523 14.8055C40.8408 14.8055 41.6421 15.6139 41.6421 16.6111V17.34C42.1833 17.3784 42.6935 17.4284 43.1737 17.4935C45.3216 17.7848 47.13 18.4081 48.5666 19.8571C50.003 21.3062 50.6208 23.1307 50.9095 25.2976C50.974 25.7818 51.0236 26.2965 51.0616 26.8426H11.9385C11.9765 26.2965 12.0261 25.7818 12.0906 25.2976C12.3794 23.1307 12.9972 21.3062 14.4336 19.8571C15.87 18.4081 17.6786 17.7848 19.8266 17.4935C20.3065 17.4284 20.8167 17.3784 21.358 17.34V16.6111C21.358 15.6139 22.1593 14.8055 23.1478 14.8055Z" fill="black" style="fill:black;fill-opacity:1;"/>
<path fill-rule="evenodd" clip-rule="evenodd" d="M11.8125 33.3303C11.8125 32.311 11.8125 31.3529 11.8207 30.4537H51.1794C51.1875 31.3526 51.1875 32.3108 51.1875 33.3301V40.7714C51.1875 42.9481 51.1875 44.7039 51.0603 46.1202C50.9291 47.58 50.6518 48.8554 49.9886 50.0139C49.2032 51.3864 48.0735 52.526 46.7131 53.3183C45.5648 53.9871 44.3005 54.2671 42.8534 54.3995C41.4495 54.5278 39.7093 54.5278 37.5513 54.5278H27.7894C24.5261 54.5278 21.8953 54.5278 19.8265 54.2473C17.6785 53.956 15.87 53.3327 14.4336 51.8837C12.9972 50.4345 12.3794 48.6101 12.0906 46.4432C11.8124 44.356 11.8125 41.7023 11.8125 38.4099V33.3303ZM19.673 43.5209C19.673 42.5235 20.4743 41.7153 21.4628 41.7153H34.2047C35.1931 41.7153 35.9945 42.5235 35.9945 43.5209C35.9945 44.518 35.1931 45.3264 34.2047 45.3264H21.4628C20.4743 45.3264 19.673 44.518 19.673 43.5209ZM21.4628 34.8766C20.4743 34.8766 19.673 35.6848 19.673 36.6821C19.673 37.6793 20.4743 38.4877 21.4628 38.4877H28.6218C29.6102 38.4877 30.4116 37.6793 30.4116 36.6821C30.4116 35.6848 29.6102 34.8766 28.6218 34.8766H21.4628Z" fill="black" style="fill:black;fill-opacity:1;"/>
</svg>
