<svg width="33" height="33" viewBox="0 0 33 33" fill="none" xmlns="http://www.w3.org/2000/svg">
<path fill-rule="evenodd" clip-rule="evenodd" d="M2.06392 24.2342V3.09376C2.06392 2.82048 2.1722 2.55751 2.36813 2.36417C2.5589 2.17081 2.82186 2.06253 3.09513 2.06253H29.9065C30.1798 2.06253 30.4428 2.17081 30.6335 2.36417C30.8295 2.55753 30.9377 2.82049 30.9377 3.09376V29.9063C30.9377 30.1795 30.8295 30.4425 30.6335 30.6359C30.4428 30.8292 30.1798 30.9375 29.9065 30.9375H3.52312L18.8675 15.5938C19.0583 15.4005 19.3212 15.2922 19.5945 15.2922C19.8678 15.2922 20.1307 15.4005 20.3215 15.5938L27.6327 22.9017C28.0349 23.3039 28.6845 23.3039 29.0867 22.9017C29.494 22.4995 29.494 21.8446 29.0867 21.4424C29.0867 21.4424 24.2761 16.6291 21.7804 14.1359C21.2029 13.5558 20.4141 13.2297 19.5943 13.2297C18.7744 13.2297 17.9856 13.5558 17.4081 14.1359L0.305551 31.2392C0.00650064 31.5343 -0.0811603 31.9778 0.0786852 32.3632C0.238524 32.7486 0.614914 33 1.03254 33H29.9064C30.7262 33 31.5151 32.6739 32.0925 32.0938C32.6752 31.5137 33 30.7261 33 29.9063V3.09375C33 2.2739 32.6752 1.48629 32.0925 0.906213C31.5151 0.326139 30.7262 0 29.9064 0H3.09496C2.27514 0 1.48628 0.326132 0.9088 0.906213C0.326175 1.48629 0.00133635 2.2739 0.00133635 3.09375V24.2342C0.00133635 24.804 0.465364 25.2655 1.03254 25.2655C1.59973 25.2655 2.06392 24.804 2.06392 24.2342ZM9.28238 5.15626C7.29217 5.15626 5.67299 6.77402 5.67299 8.7658C5.67299 10.7576 7.29197 12.3753 9.28238 12.3753C11.2728 12.3753 12.8918 10.7576 12.8918 8.7658C12.8918 6.77402 11.2728 5.15626 9.28238 5.15626ZM9.28238 7.21876C10.1383 7.21876 10.8292 7.91229 10.8292 8.76564C10.8292 9.61899 10.1383 10.3125 9.28238 10.3125C8.4265 10.3125 7.73557 9.61899 7.73557 8.76564C7.73557 7.91229 8.4265 7.21876 9.28238 7.21876Z" fill="black" style="fill:black;fill-opacity:1;"/>
</svg>
