<svg width="27" height="27" viewBox="0 0 27 27" fill="none" xmlns="http://www.w3.org/2000/svg">
<path d="M20.8402 4.28031C16.2746 -0.285329 8.84564 -0.285578 4.28025 4.27981C-0.285638 8.8457 -0.285388 16.2747 4.28025 20.8403C8.54663 25.1067 15.3128 25.3857 19.907 21.6786L24.3374 26.109C24.8264 26.598 25.6196 26.5977 26.1089 26.1085C26.5982 25.6192 26.5979 24.8264 26.1089 24.3374L21.6785 19.907C25.3854 15.3131 25.1066 8.54669 20.8402 4.28031ZM19.0689 19.0685C15.4801 22.6574 9.64066 22.6576 6.0518 19.0688C2.46294 15.4799 2.46294 9.64072 6.05205 6.05161C9.64066 2.463 15.4798 2.463 19.0687 6.05186C22.6576 9.64072 22.6576 15.4799 19.0689 19.0685Z" fill="black" style="fill:black;fill-opacity:1;"/>
</svg>
